# xmcd
#
# Track frame offsets: 
#        183
#        15113
#        30888
#        50560
#        67388
#        85538
#        101498
#        113948
#        128540
#        141245
#        153095
#        163880
#        178008
#        195083
#        209840
#        222735
#        235333
#
# Disc length: 3365 seconds
#
# Revision: 2
# Processed by: cddbd v1.5.2PL0 Copyright (c) Steve Scherf et al.
# Submitted via: ExactAudioCopy v0.99pb5
#
DISCID=e70d2311
DTITLE=Dolly Parton - Country Classics - Disc 2
DYEAR=1993
DGENRE=Country
TTITLE0=We'll Sing The Sunshine
TTITLE1=Detroit City
TTITLE2=Turn! Turn! Turn!
TTITLE3=The Great Pretender
TTITLE4=House Of The Rising Sun
TTITLE5=Release Me
TTITLE6=Elusive Butterfly
TTITLE7=Harper Valley P.T.A.
TTITLE8=In The Ghetto
TTITLE9=The Last Thing On My Mind (With Porter Wagoner
TTITLE10=Games People Play
TTITLE11=Send Me The Pillow (That You Dream On)
TTITLE12=Save The Last Dance For Me
TTITLE13=Downtown
TTITLE14=(Your Love Has Lifted Me) Higher And Higher
TTITLE15=I Can't Help Myself
TTITLE16=Great Balls Of Fire
EXTD=
EXTT0=
EXTT1=
EXTT2=
EXTT3=
EXTT4=
EXTT5=
EXTT6=
EXTT7=
EXTT8=
EXTT9=
EXTT10=
EXTT11=
EXTT12=
EXTT13=
EXTT14=
EXTT15=
EXTT16=
PLAYORDER=
